<svg width="969" height="969" viewBox="0 0 969 969" fill="none" xmlns="http://www.w3.org/2000/svg">
<rect width="969" height="969" fill="white"/>
<circle cx="183" cy="406" r="100" fill="#FFD166"/>
<circle cx="366" cy="167" r="83" fill="#073B4C"/>
<path d="M604 660C604 549.543 693.543 460 804 460V460V660C804 770.457 714.457 860 604 860V860V660Z" fill="#06D6A0"/>
<circle cx="333" cy="749" r="187" fill="#EF476F"/>
<path d="M333 528C333 442.948 401.948 374 487 374V374V528H333V528Z" fill="#D9D9D9"/>
<path d="M684 389C573.543 389 484 299.457 484 189V189L884 189V189C884 299.457 794.457 389 684 389V389Z" fill="#118AB2"/>
</svg>
